<svg width="305" height="110" viewBox="0 0 305 110" fill="none" xmlns="http://www.w3.org/2000/svg">
<path d="M49.4598 63.7513C49.3044 63.8717 49.153 63.9897 49.0058 64.1052C48.9667 64.027 49.1277 63.9068 49.4598 63.7513C55.8089 58.8305 68.7108 49.9338 73.0058 51.1052H74.5058L79.5058 55.6052C70.182 57.8609 52.5267 62.3149 49.4598 63.7513Z" fill="#B2DCEE"/>
<path d="M0 0V22.5V23L5 22.8455V4.5C31.3333 4.16667 83.9 3.7 83.5 4.5C83 5.5 74.5 13 70 16C48 32.8 27.5 36.6667 20 36.5V44H20.5C22.1667 44.1667 27.3 44.4 34.5 44C43.5 43.5 43 43 59 37.5C75 32 86.6967 17.2495 85.5 22.5C83.9143 29.4575 84.1834 41.1776 84.5 43L92.5 45.5C93.5271 36.9364 95.4062 31.5911 102.5 20.5V43V78H107.5V77V0H106H0Z" fill="#008E22"/>
<path d="M107.5 100V77.5V77L102.5 77.1545V95.5C76.1667 95.8333 23.6 96.3 24 95.5C24.5 94.5 33 87 37.5 84C59.5 67.2 80 63.3333 87.5 63.5V56H87C85.3333 55.8333 80.2 55.6 73 56C64 56.5 64.5 57 48.5 62.5C32.5 68 20.8033 82.7505 22 77.5C23.5857 70.5425 23.3166 58.8224 23 57L15 54.5C13.9729 63.0636 12.0938 68.4089 5 79.5V57L5 22H0V23L0 100H1.5L107.5 100Z" fill="#005D80"/>
<path d="M27 24.5C37.4 24.5 53.3333 22.8333 60 22C60.1667 22 60.4 22.2 60 23C59.5 24 49.5 28.5 47.5 29.5C45.9 30.3 33.1667 30.8333 27 31V24.5Z" fill="#B5EEB9"/>
<path d="M168.45 60.4C160.423 60.4 154.077 57.9033 149.41 52.91C144.79 47.87 142.48 41.5467 142.48 33.94C142.48 26.2867 145 19.9633 150.04 14.97C155.08 9.97666 161.52 7.48 169.36 7.48C175.567 7.48 181.073 8.25 185.88 9.79C186.113 9.93 186.23 10.1167 186.23 10.35C186.23 10.5367 186.16 11.26 186.02 12.52C185.413 16.86 185.087 20.0333 185.04 22.04C184.34 22.18 183.85 22.25 183.57 22.25C183.29 22.25 182.87 22.1567 182.31 21.97C181.89 18.75 181.47 16.3467 181.05 14.76C179.837 13.4533 178.133 12.3333 175.94 11.4C173.747 10.4667 171.25 10 168.45 10C163.13 10 158.72 11.8667 155.22 15.6C151.767 19.3333 150.04 24.4433 150.04 30.93C150.04 35.5033 150.787 39.7967 152.28 43.81C153.82 47.8233 156.083 51.1367 159.07 53.75C162.103 56.3167 165.697 57.6 169.85 57.6C174.003 57.6 177.69 56.48 180.91 54.24C181.797 52.7467 182.893 50.25 184.2 46.75C185.32 46.75 186.183 46.9833 186.79 47.45C186.137 50.81 185.647 54.1933 185.32 57.6C185.273 58.1133 184.97 58.4167 184.41 58.51C179.93 59.77 174.61 60.4 168.45 60.4Z" fill="#005D80"/>
<path d="M198.43 8.39L207.53 8.6L216.49 8.39C216.583 8.67 216.63 9.02 216.63 9.44L216.49 10.56C214.437 10.56 212.873 10.63 211.8 10.77C211.007 10.8633 210.61 16.1133 210.61 26.52V37.93C210.61 42.3633 210.703 46.61 210.89 50.67C211.123 54.73 211.403 56.7833 211.73 56.83C212.943 56.97 214.997 57.04 217.89 57.04C217.983 57.3667 218.03 57.74 218.03 58.16C218.03 58.58 217.983 58.93 217.89 59.21L209 59C204.1 59 200.087 59.1867 196.96 59.56C196.727 59.3267 196.61 58.93 196.61 58.37L196.68 57.81C199.713 57.1567 201.58 56.3867 202.28 55.5C202.7 54.94 202.98 54.45 203.12 54.03C203.26 53.61 203.377 52.9567 203.47 52.07C204.03 48.43 204.31 42.5267 204.31 34.36V26.52C204.31 16.1133 203.913 10.8633 203.12 10.77C202.047 10.63 200.483 10.56 198.43 10.56C198.337 10.2333 198.29 9.86 198.29 9.44C198.29 9.02 198.337 8.67 198.43 8.39Z" fill="#008E22"/>
<path d="M255.65 38.56L266.85 38.77C269.043 38.77 271.19 38.5833 273.29 38.21C273.477 38.6767 273.57 39.0733 273.57 39.4L273.43 40.24C271.657 40.9867 270.677 42.5033 270.49 44.79C270.163 47.9633 270 52.4433 270 58.23C267.2 58.23 263.957 58.58 260.27 59.28C256.583 60.0267 253.643 60.4 251.45 60.4C243.423 60.4 237.077 57.9033 232.41 52.91C227.79 47.87 225.48 41.5467 225.48 33.94C225.48 26.2867 228 19.9633 233.04 14.97C238.08 9.97666 244.52 7.48 252.36 7.48C258.707 7.48 264.33 8.15666 269.23 9.51C269.557 9.60333 269.72 9.76666 269.72 10C269.72 10.2333 269.697 10.5367 269.65 10.91C269.65 11.2833 269.603 11.82 269.51 12.52C269.463 13.1733 269.417 13.92 269.37 14.76C269.277 16.5333 269.23 18.8667 269.23 21.76C268.903 21.9467 268.46 22.04 267.9 22.04C267.34 22.04 266.897 21.97 266.57 21.83C265.73 18.05 265.123 15.6933 264.75 14.76C261.063 11.5867 256.583 10 251.31 10C246.083 10 241.72 11.8667 238.22 15.6C234.767 19.3333 233.04 24.4433 233.04 30.93C233.04 35.5033 233.787 39.7967 235.28 43.81C236.82 47.8233 239.083 51.1367 242.07 53.75C245.103 56.3167 248.603 57.6 252.57 57.6C256.583 57.6 260.41 56.76 264.05 55.08V50.81C264.05 47.31 263.91 44.1367 263.63 41.29C261.25 41.01 258.59 40.87 255.65 40.87C255.463 40.5433 255.37 40.17 255.37 39.75L255.65 38.56Z" fill="#008E22"/>
<path d="M129.94 99H122.2V97.44L124.72 96.87V79.74L122.2 79.14V77.58H129.94V79.14L127.42 79.74V96.87L129.94 97.44V99ZM140.406 99H132.666V97.44L135.186 96.87V79.74L132.666 79.14V77.58H140.406V79.14L137.886 79.74V96.87L140.406 97.44V99ZM151.622 99H148.922V79.95H142.232V77.58H158.282V79.95H151.622V99ZM175.815 77.58C177.595 77.58 179.055 77.81 180.195 78.27C181.355 78.71 182.215 79.38 182.775 80.28C183.335 81.18 183.615 82.31 183.615 83.67C183.615 84.81 183.405 85.76 182.985 86.52C182.565 87.28 182.025 87.89 181.365 88.35C180.725 88.79 180.045 89.14 179.325 89.4L185.205 99H182.055L176.865 90.15H172.605V99H169.905V77.58H175.815ZM175.665 79.92H172.605V87.87H175.815C176.975 87.87 177.925 87.72 178.665 87.42C179.405 87.1 179.945 86.64 180.285 86.04C180.645 85.44 180.825 84.69 180.825 83.79C180.825 82.85 180.635 82.1 180.255 81.54C179.895 80.98 179.335 80.57 178.575 80.31C177.815 80.05 176.845 79.92 175.665 79.92ZM207.557 88.26C207.557 89.92 207.347 91.43 206.927 92.79C206.507 94.13 205.877 95.29 205.037 96.27C204.217 97.25 203.187 98 201.947 98.52C200.727 99.04 199.307 99.3 197.687 99.3C196.007 99.3 194.547 99.04 193.307 98.52C192.067 97.98 191.037 97.23 190.217 96.27C189.397 95.29 188.787 94.12 188.387 92.76C187.987 91.4 187.787 89.89 187.787 88.23C187.787 86.03 188.147 84.11 188.867 82.47C189.587 80.83 190.677 79.55 192.137 78.63C193.617 77.71 195.477 77.25 197.717 77.25C199.857 77.25 201.657 77.71 203.117 78.63C204.577 79.53 205.677 80.81 206.417 82.47C207.177 84.11 207.557 86.04 207.557 88.26ZM190.637 88.26C190.637 90.06 190.887 91.61 191.387 92.91C191.887 94.21 192.657 95.21 193.697 95.91C194.757 96.61 196.087 96.96 197.687 96.96C199.307 96.96 200.627 96.61 201.647 95.91C202.687 95.21 203.457 94.21 203.957 92.91C204.457 91.61 204.707 90.06 204.707 88.26C204.707 85.56 204.147 83.45 203.027 81.93C201.907 80.39 200.137 79.62 197.717 79.62C196.097 79.62 194.757 79.97 193.697 80.67C192.657 81.35 191.887 82.34 191.387 83.64C190.887 84.92 190.637 86.46 190.637 88.26ZM231.295 88.26C231.295 89.92 231.085 91.43 230.665 92.79C230.245 94.13 229.615 95.29 228.775 96.27C227.955 97.25 226.925 98 225.685 98.52C224.465 99.04 223.045 99.3 221.425 99.3C219.745 99.3 218.285 99.04 217.045 98.52C215.805 97.98 214.775 97.23 213.955 96.27C213.135 95.29 212.525 94.12 212.125 92.76C211.725 91.4 211.525 89.89 211.525 88.23C211.525 86.03 211.885 84.11 212.605 82.47C213.325 80.83 214.415 79.55 215.875 78.63C217.355 77.71 219.215 77.25 221.455 77.25C223.595 77.25 225.395 77.71 226.855 78.63C228.315 79.53 229.415 80.81 230.155 82.47C230.915 84.11 231.295 86.04 231.295 88.26ZM214.375 88.26C214.375 90.06 214.625 91.61 215.125 92.91C215.625 94.21 216.395 95.21 217.435 95.91C218.495 96.61 219.825 96.96 221.425 96.96C223.045 96.96 224.365 96.61 225.385 95.91C226.425 95.21 227.195 94.21 227.695 92.91C228.195 91.61 228.445 90.06 228.445 88.26C228.445 85.56 227.885 83.45 226.765 81.93C225.645 80.39 223.875 79.62 221.455 79.62C219.835 79.62 218.495 79.97 217.435 80.67C216.395 81.35 215.625 82.34 215.125 83.64C214.625 84.92 214.375 86.46 214.375 88.26ZM242.252 77.58C244.032 77.58 245.492 77.81 246.632 78.27C247.792 78.71 248.652 79.38 249.212 80.28C249.772 81.18 250.052 82.31 250.052 83.67C250.052 84.81 249.842 85.76 249.422 86.52C249.002 87.28 248.462 87.89 247.802 88.35C247.162 88.79 246.482 89.14 245.762 89.4L251.642 99H248.492L243.302 90.15H239.042V99H236.342V77.58H242.252ZM242.102 79.92H239.042V87.87H242.252C243.412 87.87 244.362 87.72 245.102 87.42C245.842 87.1 246.382 86.64 246.722 86.04C247.082 85.44 247.262 84.69 247.262 83.79C247.262 82.85 247.072 82.1 246.692 81.54C246.332 80.98 245.772 80.57 245.012 80.31C244.252 80.05 243.282 79.92 242.102 79.92ZM270.964 99H267.784L260.194 88.77L258.004 90.69V99H255.304V77.58H258.004V88.14C258.604 87.46 259.214 86.78 259.834 86.1C260.454 85.42 261.074 84.74 261.694 84.06L267.484 77.58H270.634L262.144 86.91L270.964 99ZM286.148 99H274.178V77.58H286.148V79.95H276.878V86.64H285.608V88.98H276.878V96.63H286.148V99ZM303.118 99H291.148V77.58H303.118V79.95H293.848V86.64H302.578V88.98H293.848V96.63H303.118V99Z" fill="#005D80"/>
</svg>
