<svg width="263" height="52" viewBox="0 0 263 52" fill="none" xmlns="http://www.w3.org/2000/svg">
<rect width="263" height="52" rx="4" fill="#3C4DC2"/>
<path d="M41.1378 32V18.9091H43.9055V29.718H49.5178V32H41.1378ZM55.774 32.1918C54.764 32.1918 53.8947 31.9872 53.166 31.5781C52.4416 31.1648 51.8833 30.581 51.4913 29.8267C51.0993 29.0682 50.9032 28.1712 50.9032 27.1357C50.9032 26.1257 51.0993 25.2393 51.4913 24.4766C51.8833 23.7138 52.4352 23.1193 53.1468 22.6932C53.8627 22.267 54.7022 22.054 55.6653 22.054C56.313 22.054 56.916 22.1584 57.4743 22.3672C58.0368 22.5717 58.5268 22.8807 58.9444 23.294C59.3663 23.7074 59.6944 24.2273 59.9288 24.8537C60.1632 25.4759 60.2804 26.2045 60.2804 27.0398V27.7876H51.9899V26.1001H57.7172C57.7172 25.7081 57.6319 25.3608 57.4615 25.0582C57.291 24.7557 57.0545 24.5192 56.752 24.3487C56.4537 24.174 56.1064 24.0866 55.7101 24.0866C55.2967 24.0866 54.9302 24.1825 54.6106 24.3743C54.2953 24.5618 54.0481 24.8153 53.8691 25.1349C53.6902 25.4503 53.5985 25.8018 53.5943 26.1896V27.794C53.5943 28.2798 53.6838 28.6996 53.8627 29.0533C54.046 29.407 54.3038 29.6797 54.6362 29.8714C54.9686 30.0632 55.3627 30.1591 55.8187 30.1591C56.1213 30.1591 56.3983 30.1165 56.6497 30.0312C56.9011 29.946 57.1163 29.8182 57.2953 29.6477C57.4743 29.4773 57.6106 29.2685 57.7044 29.0213L60.2228 29.1875C60.095 29.7926 59.8329 30.321 59.4366 30.7727C59.0446 31.2202 58.5375 31.5696 57.9153 31.821C57.2974 32.0682 56.5836 32.1918 55.774 32.1918ZM67.2797 22.1818V24.2273H61.367V22.1818H67.2797ZM62.7093 19.8295H65.4324V28.983C65.4324 29.2344 65.4707 29.4304 65.5474 29.571C65.6241 29.7074 65.7306 29.8033 65.867 29.8587C66.0076 29.9141 66.1696 29.9418 66.3528 29.9418C66.4806 29.9418 66.6085 29.9311 66.7363 29.9098C66.8642 29.8842 66.9622 29.8651 67.0304 29.8523L67.4586 31.8786C67.3223 31.9212 67.1305 31.9702 66.8833 32.0256C66.6362 32.0852 66.3358 32.1214 65.9821 32.1342C65.3258 32.1598 64.7505 32.0724 64.2562 31.8722C63.7662 31.6719 63.3848 31.3608 63.112 30.9389C62.8393 30.517 62.7051 29.9844 62.7093 29.3409V19.8295ZM71.7749 18.9091V20.2898C71.7749 20.6818 71.6982 21.0824 71.5447 21.4915C71.3956 21.8963 71.1953 22.2798 70.9439 22.642C70.6925 23 70.4176 23.3047 70.1193 23.5561L68.9176 22.8466C69.1307 22.5099 69.3182 22.1371 69.4801 21.728C69.6463 21.3189 69.7294 20.8437 69.7294 20.3026V18.9091H71.7749ZM80.5272 24.9815L78.0343 25.1349C77.9917 24.9219 77.9 24.7301 77.7594 24.5597C77.6188 24.3849 77.4334 24.2464 77.2033 24.1442C76.9775 24.0376 76.7069 23.9844 76.3915 23.9844C75.9696 23.9844 75.6138 24.0739 75.324 24.2528C75.0343 24.4276 74.8894 24.6619 74.8894 24.956C74.8894 25.1903 74.9831 25.3885 75.1706 25.5504C75.3581 25.7124 75.6799 25.8423 76.1358 25.9403L77.9128 26.2983C78.8674 26.4943 79.579 26.8097 80.0478 27.2443C80.5165 27.679 80.7509 28.25 80.7509 28.9574C80.7509 29.6009 80.5613 30.1655 80.182 30.6513C79.807 31.1371 79.2914 31.5163 78.6351 31.7891C77.9831 32.0575 77.231 32.1918 76.3787 32.1918C75.079 32.1918 74.0435 31.9212 73.2722 31.38C72.5051 30.8345 72.0556 30.093 71.9235 29.1555L74.6017 29.0149C74.6827 29.4112 74.8787 29.7138 75.1898 29.9226C75.5009 30.1271 75.8993 30.2294 76.3851 30.2294C76.8624 30.2294 77.2459 30.1378 77.5357 29.9545C77.8297 29.767 77.9789 29.5263 77.9831 29.2322C77.9789 28.9851 77.8745 28.7827 77.6699 28.625C77.4654 28.4631 77.15 28.3395 76.7239 28.2543L75.0236 27.9155C74.0648 27.7237 73.351 27.3913 72.8823 26.9183C72.4178 26.4453 72.1855 25.8423 72.1855 25.1094C72.1855 24.4787 72.356 23.9354 72.6969 23.4794C73.0421 23.0234 73.5257 22.6719 74.1479 22.4247C74.7743 22.1776 75.5073 22.054 76.3468 22.054C77.5868 22.054 78.5627 22.3161 79.2743 22.8402C79.9902 23.3643 80.4078 24.0781 80.5272 24.9815ZM98.2331 23.4922H95.4334C95.3823 23.13 95.2779 22.8082 95.1202 22.527C94.9625 22.2415 94.7601 21.9986 94.513 21.7983C94.2658 21.598 93.9803 21.4446 93.6564 21.3381C93.3368 21.2315 92.9895 21.1783 92.6145 21.1783C91.937 21.1783 91.3468 21.3466 90.8439 21.6832C90.3411 22.0156 89.9512 22.5014 89.6742 23.1406C89.3972 23.7756 89.2587 24.5469 89.2587 25.4545C89.2587 26.3878 89.3972 27.1719 89.6742 27.8068C89.9554 28.4418 90.3475 28.9212 90.8503 29.245C91.3532 29.5689 91.9348 29.7308 92.5953 29.7308C92.9661 29.7308 93.3091 29.6818 93.6245 29.5838C93.9441 29.4858 94.2275 29.343 94.4746 29.1555C94.7218 28.9638 94.9263 28.7315 95.0882 28.4588C95.2544 28.1861 95.3695 27.875 95.4334 27.5256L98.2331 27.5384C98.1607 28.1392 97.9796 28.7188 97.6898 29.277C97.4043 29.831 97.0186 30.3274 96.5328 30.7663C96.0513 31.201 95.476 31.5462 94.807 31.8018C94.1422 32.0533 93.3901 32.179 92.5506 32.179C91.383 32.179 90.339 31.9148 89.4185 31.3864C88.5023 30.858 87.7779 30.093 87.2452 29.0916C86.7168 28.0902 86.4526 26.8778 86.4526 25.4545C86.4526 24.027 86.7211 22.8125 87.258 21.8111C87.7949 20.8097 88.5236 20.0469 89.4441 19.5227C90.3645 18.9943 91.4 18.7301 92.5506 18.7301C93.3091 18.7301 94.0123 18.8366 94.66 19.0497C95.312 19.2628 95.8894 19.5739 96.3922 19.983C96.8951 20.3878 97.3042 20.8842 97.6195 21.4723C97.9391 22.0604 98.1436 22.7337 98.2331 23.4922ZM104.603 32.1918C103.61 32.1918 102.751 31.9808 102.027 31.5589C101.307 31.1328 100.751 30.5405 100.358 29.782C99.9664 29.0192 99.7704 28.1349 99.7704 27.1293C99.7704 26.1151 99.9664 25.2287 100.358 24.4702C100.751 23.7074 101.307 23.1151 102.027 22.6932C102.751 22.267 103.61 22.054 104.603 22.054C105.596 22.054 106.452 22.267 107.172 22.6932C107.897 23.1151 108.455 23.7074 108.847 24.4702C109.239 25.2287 109.435 26.1151 109.435 27.1293C109.435 28.1349 109.239 29.0192 108.847 29.782C108.455 30.5405 107.897 31.1328 107.172 31.5589C106.452 31.9808 105.596 32.1918 104.603 32.1918ZM104.616 30.0824C105.067 30.0824 105.444 29.9545 105.747 29.6989C106.05 29.4389 106.278 29.0852 106.431 28.6378C106.589 28.1903 106.667 27.6811 106.667 27.1101C106.667 26.5391 106.589 26.0298 106.431 25.5824C106.278 25.1349 106.05 24.7812 105.747 24.5213C105.444 24.2614 105.067 24.1314 104.616 24.1314C104.16 24.1314 103.776 24.2614 103.465 24.5213C103.158 24.7812 102.926 25.1349 102.768 25.5824C102.615 26.0298 102.538 26.5391 102.538 27.1101C102.538 27.6811 102.615 28.1903 102.768 28.6378C102.926 29.0852 103.158 29.4389 103.465 29.6989C103.776 29.9545 104.16 30.0824 104.616 30.0824ZM113.929 18.9091V32H111.206V18.9091H113.929ZM118.833 18.9091V32H116.11V18.9091H118.833ZM123.814 32.1854C123.188 32.1854 122.629 32.0767 122.139 31.8594C121.649 31.6378 121.262 31.3118 120.976 30.8814C120.695 30.4467 120.554 29.9055 120.554 29.2578C120.554 28.7124 120.654 28.2543 120.855 27.8835C121.055 27.5128 121.328 27.2145 121.673 26.9886C122.018 26.7628 122.41 26.5923 122.849 26.4773C123.292 26.3622 123.757 26.2812 124.242 26.2344C124.813 26.1747 125.274 26.1193 125.623 26.0682C125.972 26.0128 126.226 25.9318 126.384 25.8253C126.541 25.7187 126.62 25.5611 126.62 25.3523V25.3139C126.62 24.9091 126.492 24.5959 126.237 24.3743C125.985 24.1527 125.627 24.0419 125.163 24.0419C124.673 24.0419 124.283 24.1506 123.993 24.3679C123.703 24.581 123.512 24.8494 123.418 25.1733L120.899 24.9688C121.027 24.3722 121.279 23.8565 121.654 23.4219C122.029 22.983 122.512 22.6463 123.105 22.4119C123.701 22.1733 124.392 22.054 125.176 22.054C125.721 22.054 126.243 22.1179 126.742 22.2457C127.244 22.3736 127.69 22.5717 128.078 22.8402C128.47 23.1087 128.779 23.4538 129.004 23.8757C129.23 24.2933 129.343 24.794 129.343 25.3778V32H126.761V30.6385H126.684C126.526 30.9453 126.316 31.2159 126.051 31.4503C125.787 31.6804 125.47 31.8615 125.099 31.9936C124.728 32.1214 124.3 32.1854 123.814 32.1854ZM124.594 30.3061C124.994 30.3061 125.348 30.2273 125.655 30.0696C125.962 29.9077 126.203 29.6903 126.377 29.4176C126.552 29.1449 126.639 28.8359 126.639 28.4908V27.4489C126.554 27.5043 126.437 27.5554 126.288 27.6023C126.143 27.6449 125.979 27.6854 125.796 27.7237C125.612 27.7578 125.429 27.7898 125.246 27.8196C125.063 27.8452 124.896 27.8686 124.747 27.8899C124.428 27.9368 124.149 28.0114 123.91 28.1136C123.671 28.2159 123.486 28.3544 123.354 28.5291C123.222 28.6996 123.156 28.9126 123.156 29.1683C123.156 29.5391 123.29 29.8224 123.558 30.0185C123.831 30.2102 124.176 30.3061 124.594 30.3061ZM131.507 32V18.9091H134.23V23.831H134.313C134.432 23.5668 134.605 23.2983 134.831 23.0256C135.061 22.7486 135.359 22.5185 135.726 22.3352C136.096 22.1477 136.557 22.054 137.106 22.054C137.822 22.054 138.483 22.2415 139.088 22.6165C139.693 22.9872 140.177 23.5476 140.539 24.2976C140.901 25.0433 141.082 25.9787 141.082 27.1037C141.082 28.1989 140.905 29.1236 140.552 29.8778C140.202 30.6278 139.725 31.1967 139.12 31.5845C138.519 31.968 137.846 32.1598 137.1 32.1598C136.572 32.1598 136.122 32.0724 135.751 31.8977C135.385 31.723 135.084 31.5036 134.85 31.2393C134.616 30.9709 134.437 30.7003 134.313 30.4276H134.192V32H131.507ZM134.172 27.0909C134.172 27.6747 134.253 28.1839 134.415 28.6186C134.577 29.0533 134.812 29.392 135.118 29.6349C135.425 29.8736 135.798 29.9929 136.237 29.9929C136.68 29.9929 137.055 29.8714 137.362 29.6286C137.669 29.3814 137.901 29.0405 138.059 28.6058C138.221 28.1669 138.302 27.6619 138.302 27.0909C138.302 26.5241 138.223 26.0256 138.065 25.5952C137.907 25.1648 137.675 24.8281 137.368 24.5852C137.062 24.3423 136.684 24.2209 136.237 24.2209C135.794 24.2209 135.419 24.3381 135.112 24.5724C134.809 24.8068 134.577 25.1392 134.415 25.5696C134.253 26 134.172 26.5071 134.172 27.0909ZM147.335 32.1918C146.342 32.1918 145.484 31.9808 144.759 31.5589C144.039 31.1328 143.483 30.5405 143.091 29.782C142.699 29.0192 142.503 28.1349 142.503 27.1293C142.503 26.1151 142.699 25.2287 143.091 24.4702C143.483 23.7074 144.039 23.1151 144.759 22.6932C145.484 22.267 146.342 22.054 147.335 22.054C148.328 22.054 149.185 22.267 149.905 22.6932C150.629 23.1151 151.188 23.7074 151.58 24.4702C151.972 25.2287 152.168 26.1151 152.168 27.1293C152.168 28.1349 151.972 29.0192 151.58 29.782C151.188 30.5405 150.629 31.1328 149.905 31.5589C149.185 31.9808 148.328 32.1918 147.335 32.1918ZM147.348 30.0824C147.8 30.0824 148.177 29.9545 148.479 29.6989C148.782 29.4389 149.01 29.0852 149.163 28.6378C149.321 28.1903 149.4 27.6811 149.4 27.1101C149.4 26.5391 149.321 26.0298 149.163 25.5824C149.01 25.1349 148.782 24.7812 148.479 24.5213C148.177 24.2614 147.8 24.1314 147.348 24.1314C146.892 24.1314 146.509 24.2614 146.197 24.5213C145.891 24.7812 145.658 25.1349 145.501 25.5824C145.347 26.0298 145.271 26.5391 145.271 27.1101C145.271 27.6811 145.347 28.1903 145.501 28.6378C145.658 29.0852 145.891 29.4389 146.197 29.6989C146.509 29.9545 146.892 30.0824 147.348 30.0824ZM153.938 32V22.1818H156.578V23.8949H156.68C156.859 23.2855 157.16 22.8253 157.582 22.5142C158.004 22.1989 158.489 22.0412 159.039 22.0412C159.175 22.0412 159.322 22.0497 159.48 22.0668C159.638 22.0838 159.776 22.1072 159.896 22.1371V24.5533C159.768 24.5149 159.591 24.4808 159.365 24.451C159.139 24.4212 158.933 24.4062 158.745 24.4062C158.344 24.4062 157.987 24.4936 157.671 24.6683C157.36 24.8388 157.113 25.0774 156.93 25.3842C156.751 25.6911 156.661 26.0447 156.661 26.4453V32H153.938ZM163.822 32.1854C163.195 32.1854 162.637 32.0767 162.147 31.8594C161.657 31.6378 161.269 31.3118 160.984 30.8814C160.703 30.4467 160.562 29.9055 160.562 29.2578C160.562 28.7124 160.662 28.2543 160.862 27.8835C161.063 27.5128 161.335 27.2145 161.681 26.9886C162.026 26.7628 162.418 26.5923 162.857 26.4773C163.3 26.3622 163.764 26.2812 164.25 26.2344C164.821 26.1747 165.281 26.1193 165.631 26.0682C165.98 26.0128 166.234 25.9318 166.392 25.8253C166.549 25.7187 166.628 25.5611 166.628 25.3523V25.3139C166.628 24.9091 166.5 24.5959 166.244 24.3743C165.993 24.1527 165.635 24.0419 165.171 24.0419C164.681 24.0419 164.291 24.1506 164.001 24.3679C163.711 24.581 163.519 24.8494 163.426 25.1733L160.907 24.9688C161.035 24.3722 161.286 23.8565 161.661 23.4219C162.036 22.983 162.52 22.6463 163.112 22.4119C163.709 22.1733 164.399 22.054 165.183 22.054C165.729 22.054 166.251 22.1179 166.749 22.2457C167.252 22.3736 167.698 22.5717 168.085 22.8402C168.477 23.1087 168.786 23.4538 169.012 23.8757C169.238 24.2933 169.351 24.794 169.351 25.3778V32H166.769V30.6385H166.692C166.534 30.9453 166.323 31.2159 166.059 31.4503C165.795 31.6804 165.477 31.8615 165.107 31.9936C164.736 32.1214 164.308 32.1854 163.822 32.1854ZM164.602 30.3061C165.002 30.3061 165.356 30.2273 165.663 30.0696C165.97 29.9077 166.21 29.6903 166.385 29.4176C166.56 29.1449 166.647 28.8359 166.647 28.4908V27.4489C166.562 27.5043 166.445 27.5554 166.296 27.6023C166.151 27.6449 165.987 27.6854 165.803 27.7237C165.62 27.7578 165.437 27.7898 165.254 27.8196C165.07 27.8452 164.904 27.8686 164.755 27.8899C164.436 27.9368 164.156 28.0114 163.918 28.1136C163.679 28.2159 163.494 28.3544 163.362 28.5291C163.23 28.6996 163.164 28.9126 163.164 29.1683C163.164 29.5391 163.298 29.8224 163.566 30.0185C163.839 30.2102 164.184 30.3061 164.602 30.3061ZM176.686 22.1818V24.2273H170.773V22.1818H176.686ZM172.116 19.8295H174.839V28.983C174.839 29.2344 174.877 29.4304 174.954 29.571C175.03 29.7074 175.137 29.8033 175.273 29.8587C175.414 29.9141 175.576 29.9418 175.759 29.9418C175.887 29.9418 176.015 29.9311 176.143 29.9098C176.27 29.8842 176.368 29.8651 176.437 29.8523L176.865 31.8786C176.729 31.9212 176.537 31.9702 176.29 32.0256C176.042 32.0852 175.742 32.1214 175.388 32.1342C174.732 32.1598 174.157 32.0724 173.662 31.8722C173.172 31.6719 172.791 31.3608 172.518 30.9389C172.246 30.517 172.111 29.9844 172.116 29.3409V19.8295ZM182.829 32.1918C181.819 32.1918 180.949 31.9872 180.221 31.5781C179.496 31.1648 178.938 30.581 178.546 29.8267C178.154 29.0682 177.958 28.1712 177.958 27.1357C177.958 26.1257 178.154 25.2393 178.546 24.4766C178.938 23.7138 179.49 23.1193 180.202 22.6932C180.917 22.267 181.757 22.054 182.72 22.054C183.368 22.054 183.971 22.1584 184.529 22.3672C185.091 22.5717 185.581 22.8807 185.999 23.294C186.421 23.7074 186.749 24.2273 186.983 24.8537C187.218 25.4759 187.335 26.2045 187.335 27.0398V27.7876H179.045V26.1001H184.772C184.772 25.7081 184.687 25.3608 184.516 25.0582C184.346 24.7557 184.109 24.5192 183.807 24.3487C183.508 24.174 183.161 24.0866 182.765 24.0866C182.351 24.0866 181.985 24.1825 181.665 24.3743C181.35 24.5618 181.103 24.8153 180.924 25.1349C180.745 25.4503 180.653 25.8018 180.649 26.1896V27.794C180.649 28.2798 180.738 28.6996 180.917 29.0533C181.101 29.407 181.358 29.6797 181.691 29.8714C182.023 30.0632 182.417 30.1591 182.873 30.1591C183.176 30.1591 183.453 30.1165 183.704 30.0312C183.956 29.946 184.171 29.8182 184.35 29.6477C184.529 29.4773 184.665 29.2685 184.759 29.0213L187.278 29.1875C187.15 29.7926 186.888 30.321 186.491 30.7727C186.099 31.2202 185.592 31.5696 184.97 31.821C184.352 32.0682 183.638 32.1918 182.829 32.1918Z" fill="white"/>
<g clip-path="url(#clip0_3_237)">
<path d="M204 26H218" stroke="white" stroke-width="1.5" stroke-linecap="round" stroke-linejoin="round"/>
<path d="M214 30L218 26" stroke="white" stroke-width="1.5" stroke-linecap="round" stroke-linejoin="round"/>
<path d="M214 22L218 26" stroke="white" stroke-width="1.5" stroke-linecap="round" stroke-linejoin="round"/>
</g>
<defs>
<clipPath id="clip0_3_237">
<rect width="24" height="24" fill="white" transform="translate(199 14)"/>
</clipPath>
</defs>
</svg>
