<svg width="476" height="446" viewBox="0 0 476 446" fill="none" xmlns="http://www.w3.org/2000/svg">
<path fill-rule="evenodd" clip-rule="evenodd" d="M393.82 206.41C393.82 151.667 373.074 99.1655 336.146 60.4561C299.219 21.7467 249.134 0 196.91 0C144.686 0 94.6014 21.7467 57.6736 60.4561C20.7458 99.1655 0 151.667 0 206.41C0 261.153 20.7458 313.655 57.6736 352.364C94.6014 391.073 144.686 412.82 196.91 412.82C249.134 412.82 299.219 391.073 336.146 352.364C373.074 313.655 393.82 261.153 393.82 206.41Z" fill="#009822"/>
<path fill-rule="evenodd" clip-rule="evenodd" d="M381.32 206.41C381.499 180.905 376.861 155.615 367.674 131.997C358.487 108.38 344.931 86.9014 327.789 68.7999C310.647 50.6984 290.256 36.3318 267.793 26.5278C245.33 16.7239 221.238 11.6765 196.905 11.6765C172.572 11.6765 148.48 16.7239 126.017 26.5278C103.554 36.3318 83.1634 50.6984 66.0211 68.7999C48.8788 86.9014 35.3234 108.38 26.136 131.997C16.9486 155.615 12.3108 180.905 12.49 206.41C12.3108 231.915 16.9486 257.205 26.136 280.823C35.3234 304.44 48.8788 325.919 66.0211 344.02C83.1634 362.122 103.554 376.488 126.017 386.292C148.48 396.096 172.572 401.143 196.905 401.143C221.238 401.143 245.33 396.096 267.793 386.292C290.256 376.488 310.647 362.122 327.789 344.02C344.931 325.919 358.487 304.44 367.674 280.823C376.861 257.205 381.499 231.915 381.32 206.41Z" fill="#009822"/>
<path fill-rule="evenodd" clip-rule="evenodd" d="M361.02 206.41C361.189 183.706 357.069 161.192 348.897 140.166C340.725 119.139 328.664 100.016 313.407 83.8992C298.151 67.7823 280.002 54.9904 260.007 46.2609C240.012 37.5314 218.565 33.0371 196.905 33.0371C175.245 33.0371 153.799 37.5314 133.803 46.2609C113.808 54.9904 95.6589 67.7823 80.4026 83.8992C65.1463 100.016 53.0846 119.139 44.9128 140.166C36.7411 161.192 32.621 183.706 32.79 206.41C32.621 229.114 36.7411 251.628 44.9128 272.654C53.0846 293.681 65.1463 312.804 80.4026 328.921C95.6589 345.038 113.808 357.829 133.803 366.559C153.799 375.288 175.245 379.783 196.905 379.783C218.565 379.783 240.012 375.288 260.007 366.559C280.002 357.829 298.151 345.038 313.407 328.921C328.664 312.804 340.725 293.681 348.897 272.654C357.069 251.628 361.189 229.114 361.02 206.41Z" fill="white"/>
<path fill-rule="evenodd" clip-rule="evenodd" d="M328.87 206.41C328.87 169.72 314.966 134.533 290.217 108.589C265.468 82.6451 231.901 68.0701 196.9 68.0701C161.899 68.0701 128.332 82.6451 103.583 108.589C78.8339 134.533 64.9299 169.72 64.9299 206.41C64.9299 243.1 78.8339 278.287 103.583 304.231C128.332 330.175 161.899 344.75 196.9 344.75C231.901 344.75 265.468 330.175 290.217 304.231C314.966 278.287 328.87 243.1 328.87 206.41Z" fill="#009822"/>
<path fill-rule="evenodd" clip-rule="evenodd" d="M304.03 206.41C304.03 191.663 301.259 177.061 295.876 163.436C290.492 149.812 282.601 137.433 272.654 127.005C262.706 116.578 250.897 108.306 237.9 102.663C224.903 97.0194 210.973 94.1147 196.905 94.1147C182.837 94.1147 168.907 97.0194 155.91 102.663C142.913 108.306 131.104 116.578 121.156 127.005C111.209 137.433 103.318 149.812 97.9344 163.436C92.5509 177.061 89.78 191.663 89.78 206.41C89.78 221.157 92.5509 235.759 97.9344 249.384C103.318 263.008 111.209 275.387 121.156 285.815C131.104 296.242 142.913 304.514 155.91 310.157C168.907 315.801 182.837 318.705 196.905 318.705C210.973 318.705 224.903 315.801 237.9 310.157C250.897 304.514 262.706 296.242 272.654 285.815C282.601 275.387 290.492 263.008 295.876 249.384C301.259 235.759 304.03 221.157 304.03 206.41Z" fill="white"/>
<path fill-rule="evenodd" clip-rule="evenodd" d="M267.12 206.41C267.12 186.89 259.722 168.169 246.554 154.366C233.387 140.562 215.527 132.808 196.905 132.808C178.283 132.808 160.423 140.562 147.255 154.366C134.088 168.169 126.69 186.89 126.69 206.41C126.69 225.931 134.088 244.651 147.255 258.455C160.423 272.258 178.283 280.012 196.905 280.012C215.527 280.012 233.387 272.258 246.554 258.455C259.722 244.651 267.12 225.931 267.12 206.41Z" fill="#009822"/>
<path fill-rule="evenodd" clip-rule="evenodd" d="M240.25 206.41C240.25 194.359 235.683 182.801 227.553 174.279C219.424 165.757 208.398 160.97 196.901 160.97C185.404 160.97 174.378 165.757 166.249 174.279C158.119 182.801 153.552 194.359 153.552 206.41C153.552 218.461 158.119 230.019 166.249 238.541C174.378 247.063 185.404 251.85 196.901 251.85C208.398 251.85 219.424 247.063 227.553 238.541C235.683 230.019 240.25 218.461 240.25 206.41Z" fill="white"/>
<path d="M211.471 210.482L205.373 223.254L429.735 398.479L435.833 385.707L211.471 210.482Z" fill="#007995"/>
<path fill-rule="evenodd" clip-rule="evenodd" d="M186.511 201.389L213.691 246.834L210.077 219.317L240.163 217.438L186.511 201.389Z" fill="#007995"/>
<path fill-rule="evenodd" clip-rule="evenodd" d="M378.923 341.352L435.772 386.141L472.799 388.112L422.04 349.497L378.923 341.352Z" fill="#007995"/>
<path fill-rule="evenodd" clip-rule="evenodd" d="M371.286 350.871L428.083 395.727L438.622 431.277L389.248 390.906L371.286 350.871Z" fill="#007995"/>
<path fill-rule="evenodd" clip-rule="evenodd" d="M373.791 344.875L426.935 382.403L461.058 414.875L413.632 380.961L373.791 344.875Z" fill="url(#paint0_linear_10_10)"/>
<defs>
<linearGradient id="paint0_linear_10_10" x1="295.096" y1="855.485" x2="373.44" y2="854.548" gradientUnits="userSpaceOnUse">
<stop stop-color="#00956F"/>
<stop offset="1" stop-color="#11B8DE"/>
</linearGradient>
</defs>
</svg>
